<svg xmlns="http://www.w3.org/2000/svg" width="512" height="512" viewBox="0 0 512 512"><path fill="#F97243" d="M512 472c0 22.1-17.9 40-40 40H40c-22.1 0-40-17.9-40-40V40C0 17.9 17.9 0 40 0h432c22.1 0 40 17.9 40 40v432z"/><path fill="#132064" d="M92.5 188.8h30.8L85 309s0 19.8 12.7 19.8h38.2s18-3.2 23.3-19.1c5.3-15.9 23.3-83.8 23.3-83.8h30.8l-7.1 25.5h64.4l13.8-37.1H189l9.6-25.5h86s32.9 1.1 32.9 23.3c0 22.3-14.9 46.7-14.9 46.7s-7.4 6.4-17 9.6c0 0 11.7 6.4 9.6 17-2.1 10.6-15.9 52-15.9 52s-6.4 12.7-22.3 12.7h-67.9l6.3-26.6H248l16.7-43.5-63.4.7-21.4 71.5H147l2.9-10s-2.6 10-33.2 10-71.9-7.7-56.4-57.1 32.2-106.3 32.2-106.3zM352 191.5h32l-50.5 160.7h-31.9z"/><path fill="#FFF" d="M342.8 159.8s131.1 2.6 109.8 12.2c-21.4 9.6-154.1 10.3-154.1 10.3s104.3-7.4 81.8-14.7c-22.4-7.4-37.5-7.8-37.5-7.8z"/></svg>