<?xml version="1.0" encoding="UTF-8"?>
<svg width="400px" height="400px" viewBox="0 0 400 400" version="1.1" xmlns="http://www.w3.org/2000/svg" xmlns:xlink="http://www.w3.org/1999/xlink">
    <!-- Generator: Sketch 54.1 (76490) - https://sketchapp.com -->
    <title>dhl-express</title>
    <desc>Created with Sketch.</desc>
    <g id="Page-1" stroke="none" stroke-width="1" fill="none" fill-rule="evenodd">
        <g id="dhl-express">
            <rect id="Rectangle" fill="#FFCC00" x="0" y="0" width="400" height="400" rx="20"></rect>
            <g transform="translate(0.000000, 155.000000)" fill-rule="nonzero">
                <rect id="Rectangle" fill="#FFCC00" x="0" y="0" width="400" height="88.2720408"></rect>
                <g id="Group" transform="translate(0.000000, 15.285714)" fill="#D40511">
                    <g transform="translate(0.000000, 37.775510)" id="Path">
                        <g>
                            <polygon points="0 7.96122449 54.0938776 7.96122449 51.1387755 11.9816327 0 11.9816327 0 7.96122449"></polygon>
                            <polygon points="0 0.5 59.5897959 0.5 56.6285714 4.51632653 0 4.51632653 0 0.5"></polygon>
                            <polygon points="0 15.4285714 48.6020408 15.4285714 45.6591837 19.4204082 0 19.4204082 0 15.4285714"></polygon>
                        </g>
                        <g transform="translate(339.775510, 0.000000)">
                            <polygon points="60.2244898 11.9816327 6.34285714 11.9816327 9.29591837 7.96326531 60.2244898 7.96326531 60.2244898 11.9816327"></polygon>
                            <polygon points="60.2244898 19.4204082 0.863265306 19.4265306 3.80408163 15.4285714 60.2244898 15.4285714 60.2244898 19.4204082"></polygon>
                            <polygon points="14.7857143 0.5 60.2244898 0.5 60.2244898 4.51836735 11.8306122 4.52244898 14.7857143 0.5"></polygon>
                        </g>
                    </g>
                    <g transform="translate(52.020408, 21.448980)" id="Path">
                        <path d="M0.372653061,35.747551 L26.0418367,0.87244898 L57.8953061,0.87244898 C61.4161224,0.87244898 61.37,2.20918367 59.6504082,4.54081633 C57.9030612,6.90816327 54.9293878,10.9789796 53.1495918,13.3822449 C52.2463265,14.6030612 50.6126531,16.8273469 56.024898,16.8273469 L98.6983673,16.8273469 C95.1493878,21.6889796 83.6371429,35.747551 62.9673469,35.747551 L0.372653061,35.747551 Z"></path>
                        <path d="M147.378776,16.8244898 L133.460408,35.747551 L96.7408163,35.747551 C96.7408163,35.747551 110.653469,16.8273469 110.665918,16.8273469 L147.378776,16.8244898 L147.378776,16.8244898 Z"></path>
                        <path d="M200.477347,16.8273469 L186.55102,35.747551 L149.84551,35.747551 C149.84551,35.747551 163.759388,16.8273469 163.771837,16.8273469 L200.477347,16.8273469 Z"></path>
                        <path d="M212.418163,16.8273469 C212.419388,16.8273469 209.736327,20.4957143 208.432653,22.2559184 C203.821837,28.4873469 207.896735,35.7467347 222.944898,35.7467347 L281.89449,35.7467347 L295.818163,16.8265306 L212.418163,16.8273469 Z"></path>
                    </g>
                    <g transform="translate(57.142857, 0.000000)" id="Path">
                        <path d="M13.2010204,0.634081633 L0.42122449,17.9973469 L70.0720408,17.9973469 C73.5922449,17.9973469 73.5461224,19.3340816 71.8255102,21.6655102 C70.0781633,24.0302041 67.1532653,28.1477551 65.3736735,30.5510204 C64.4702041,31.7693878 62.8365306,33.9932653 68.2489796,33.9932653 L96.7314286,33.9932653 C96.7314286,33.9932653 101.323265,27.7453061 105.170612,22.5226531 C110.406327,15.417551 105.624694,0.634081633 86.9081633,0.634081633 L13.2010204,0.634081633 Z"></path>
                        <polygon points="198.508163 33.9938776 108.697959 33.9938776 133.257143 0.634693878 169.963265 0.634693878 155.889796 19.7612245 172.273469 19.7612245 186.357143 0.634693878 223.059184 0.634693878 198.508163 33.9938776"></polygon>
                        <path d="M273.894694,0.634081633 L249.340816,33.9932653 L210.444286,33.9932653 C210.444286,33.9932653 235.006531,0.634081633 235.018776,0.634081633 L273.894694,0.634081633 Z"></path>
                    </g>
                </g>
            </g>
        </g>
    </g>
</svg>