<svg xmlns="http://www.w3.org/2000/svg" width="512" height="512" viewBox="0 0 512 512"><path fill="#0A5492" d="M512 472c0 22.1-17.9 40-40 40H40c-22.1 0-40-17.9-40-40V40C0 17.9 17.9 0 40 0h432c22.1 0 40 17.9 40 40v432z"/><path fill="#FFF" d="M112.3 208.4s-31 2.8-36.2 5.2c-2.2 1 5.4-25.4 14.2-33.8 6.1-5.9 19.2-12.2 43.6-16.4 23.3-4 32.7-5.4 38.9-6 6.5-.6 15-1.5 22.5-1.5s17.4.9 20.6 3.4c3.2 2.4 6.8 5 7.7 10.9.8 5.9-3.5 12.4-14 32.2-10.5 19.9-15.9 28-19 33.3-.7 1.1-5.4 7.9-5.4 7.9l16.6-.1s-8.1 14.3-12.3 21.8l-22.2.7s-19.2 27.7-30.1 38.1c-10.9 10.3-25.1 21-25.1 21s-7.8 5.8-19.5 10.2C80.9 339.7 80 338 80 338s5.6-14.8 12.8-20.9c4.4-3.7 18.9-12 25.3-17.3 4.4-3.6 21.9-16.8 25.6-22 3.8-5.2 3.2-7.8 3.2-7.8l-43.4-.1s6.8-11.1 18.2-16.4c11.4-5.3 15-5.4 22-6.1 7-.6 10.9-1 14.6-1.2 8.1-.4 8.1-.3 14-.4l26-43.4s2.7-4.6 4.3-10.3c1.6-5.8-1.2-8-5.4-8.3-11.7-.9-30.5-.7-48.7 2.9-17.2 3.4-27.3 5.4-36.7 8.7-5.8 2.1-15.8 6.5-15.8 6.5s10.2 4 16.3 6.5zM402.6 233.9l17.9.4 15.8-22.9h-14.9s10.5-12.3 13.8-17.7c2.3-3.8 1.3-5-4.7-6.1-7.8-1.4-8.3 2.2-12.4 7.9-1.4 1.9-10.7 15.4-10.7 15.4H382l-13.8 21.7 22.6.1-61.5 70.3s-8.8 3.8-3.2-6.6c5.5-10.4 30.4-51.2 30.4-51.2s2.9-3.2 2.7-7.3c-.2-4.1-.4-12.2-3.8-11.6-3.4.5-4.5 3-7.9 6.6-3.4 3.6-36.3 40.6-45.7 46.2-9.3 5.5-12.7 2.9-14.1 2.9s-5-6.3-1.1-11.8c3.9-5.6 25.1-23.4 32-33.1 1.3-1.9 4-5.7-.4-10.2-5-5.2-7.5-3-12.2-.9-4.7 2.1-15.3 12.4-20.8 20.6-3.6 5.4-9.1 14.3-12.5 21.1-3.4 6.8-7.9 13.1-13.6 16.3-5.7 3.2-10.4 6-16.6 4.7-5.8-1.2-7.9-6.6-7.9-10.2 0-3.6-.6-10.2 3.6-18.1 3.4-6.5 19.5-18.1 27-29.9 7.5-11.8 14.3-17 19.6-32.9 2.9-8.8 4.4-18.4 5.1-25.3.3-3.6-1.1-8.3-5.5-8.4-2.7 0-16.6 7.1-37.6 41.4-4.6 7.5-15.2 25.2-20.2 39-6.6 18.3-8.9 25.6-9.6 35.9-.6 8.5 3.2 16 7.3 19.3 4 3.3 6.3 3.8 14.5 3.3s15.4-2.3 20.4-6.4c5-4.1 12-11.1 12-11.1s3.8 9.5 6.6 13.6c2.9 4.1 3.4 5.2 6.6 4.8 3.2-.4 13.2-7.9 15.9-10 2.7-2.1 19.7-15.8 19.7-15.8s-14.7 29.4-17.7 34.9-12.9 21.8-14.3 24.5c-1.4 2.7.2 12.2 1.3 15.8 1.1 3.6 2.5 3 2.5 3l70.5-78.8s-.5 12.2-.4 16.3c.1 2.1-.9 12.5 6.8 12.5s18.1-.2 28.8-7.3c10.7-7.2 18.4-16.5 24-22.4 2.1-2.2-10 1.3-14.7 3.6-6.6 3.2-11.4 5.7-17.2 4.8-7.3-1.1-7.2-4.7-4.7-12.2 2.8-7.6 17.7-38.7 17.7-38.7zm-158.7-2.2c3.4-7.1 12-23.9 15.7-29.8 3.8-5.9 4.3-6.7 7.1-9.9s4.6-4.6 6.2-4.6c1.6 0 3.7 1.1 2.3 7.1-2.5 10.7-10.9 25.1-20.3 37.3-3.8 5-4.4 7-8.7 9.8-4.4 2.8-5.7-2.8-2.3-9.9z"/></svg>