<svg xmlns="http://www.w3.org/2000/svg" viewBox="0 0 512 512"><path fill="#D02315" d="M512 472c0 22.094-17.906 40-40 40H40c-22.094 0-40-17.906-40-40V40C0 17.906 17.906 0 40 0h432c22.094 0 40 17.906 40 40v432z"/><g fill="#FFF"><path d="M333.494 223.925c-1.148.164-2.133.492-3.117.656 7.875-7.055 15.258-14.11 15.258-23.625 0-21-28.547-37.243-63.001-37.407h-4.594c-3.609 0-67.431 2.625-60.376 32.485 7.383 5.906 9.68 7.055 18.375 10.992-.984-2.133-1.313-3.773-1.313-6.234 0-12.797 20.016-26.579 45.282-26.579s45.774 13.782 45.774 26.579-13.453 28.055-41.673 27.563c-2.625-.164-5.25-.492-7.875-.82.164-15.586 1.312-39.704 1.312-39.704H261.47s.984 21.985 1.312 37.407l-2.461-.492c-60.868-15.422-93.682-66.775-93.682-66.775l-71.368 50.696c61.196 48.071 134.37 42.329 153.565 41.016v-.492c-63.657-1.148-117.799-32.321-124.362-40.524l35.11-24.774c13.453 11.813 44.79 42.821 100.736 53.157.82.328 1.641.492 2.461.656-.164 18.375-1.312 41.345-1.312 41.345h16.078s-.984-21.657-1.312-39.54c.492.164.82.164 1.312.164 6.727.656 13.946.984 21.329.984 51.845 0 95.65-28.383 121.08-52.501-6.234-4.758-9.188-7.055-16.735-12.469-16.405 19.689-38.062 39.213-69.727 48.236zM73.286 317.114c-4.594-2.297-8.695-2.789-13.289-2.789H38.504v39.376h9.024v-15.422h13.617c12.141 0 18.539-6.234 18.539-11.813.001-4.266-2.788-7.547-6.398-9.352zm-12.469 15.587H47.528v-12.797h12.961c2.625 0 4.43.164 6.399 1.148 2.297.984 3.773 2.625 3.773 5.25 0 3.117-3.281 6.399-9.844 6.399zM109.873 313.997c-9.352 0-15.75 3.609-18.539 7.055-1.969 2.297-2.625 3.445-2.625 12.961s.656 10.664 2.625 12.961c2.789 3.445 9.188 7.055 18.539 7.055s15.75-3.609 18.539-7.055c1.969-2.297 2.625-3.445 2.625-12.961s-.656-10.664-2.625-12.961c-2.789-3.445-9.187-7.055-18.539-7.055zm9.023 31.173c-1.805 1.641-4.922 2.953-9.188 2.953-4.266 0-7.383-1.313-9.188-2.953-2.297-1.969-2.953-3.117-2.953-11.156 0-8.039.656-9.188 2.953-11.156 1.805-1.477 4.922-2.953 9.188-2.953 4.266 0 7.383 1.312 9.188 2.953 2.297 1.969 2.953 3.117 2.953 11.156.001 8.038-.656 9.187-2.953 11.156zM122.014 304.317h-11.157l-7.547 8.04h6.891zM166.311 331.224c-2.789-.164-5.086-.492-6.563-.656-5.906-.656-8.367-2.789-8.367-5.086 0-3.773 4.43-5.578 9.844-5.578 5.25 0 10.336 1.148 14.602 3.117l4.922-4.922c-5.414-2.297-11.813-4.102-19.196-4.102-12.141 0-19.196 4.758-19.196 11.485 0 5.742 5.414 10.172 15.75 11.156 3.117.328 5.086.492 7.875.656 5.25.492 7.711 2.625 7.711 5.25 0 3.281-4.43 5.414-11.649 5.414-6.234 0-12.305-1.477-16.735-3.938l-6.235 4.594c6.234 3.609 13.782 5.414 22.641 5.414 12.797 0 20.836-4.266 20.836-11.485.003-5.412-5.083-10.499-16.24-11.319zM188.624 319.575h16.243v34.126h8.859v-34.126h16.243v-5.25h-41.345zM271.149 339.756c0 5.414-5.25 8.367-11.977 8.367s-11.977-2.953-11.977-8.367v-25.43h-9.024v26.086c0 8.203 9.352 13.617 21 13.617 11.649 0 21-5.414 21-13.617v-26.086h-9.024v25.43zM335.463 325.318c0-3.609-2.625-6.563-5.906-8.367-3.117-1.805-7.055-2.625-11.977-2.625h-23.133v39.376h9.024v-16.899h11.485l12.141 16.899h10.664l-13.782-17.555c7.219-1.642 11.484-5.743 11.484-10.829zm-31.993 6.07v-11.813h14.11c3.117 0 4.922.328 6.563 1.148 1.805.82 2.953 2.461 2.953 4.43 0 3.281-3.281 6.235-10.008 6.235H303.47zM348.096 314.325h9.024v39.376h-9.024zM407.816 342.217h-.328l-26.579-27.892h-8.531v39.376h9.024v-28.055h.164l26.742 28.055h8.368v-39.376h-8.86zM467.372 314.325v27.892h-.164l-26.743-27.892h-8.367v39.376h8.859v-28.055h.165l26.742 28.055h8.532v-39.376z"/></g></svg>