<svg xmlns="http://www.w3.org/2000/svg" width="512" height="512" viewBox="0 0 512 512"><path fill="#EE2722" d="M512 472c0 22.1-17.9 40-40 40H40c-22.1 0-40-17.9-40-40V40C0 17.9 17.9 0 40 0h432c22.1 0 40 17.9 40 40v432z"/><path fill="#FFEC00" d="M77.2 281.1s-18.8-26.7-19-27c4.2-.1 8.2-1.8 11.2-4.8 3.5-3.6 5.7-8.7 5.7-13.4v-.7c0-4.4-1.9-8.9-5.1-12.1-3.2-3.2-7.3-4.8-12.2-4.8H38.7V281h-4.4v-67.4h23.5c6 0 11.4 2.1 15.4 6.2 4.2 4.1 6.5 9.9 6.5 15.7 0 6.1-2.6 12.4-7.1 16.9-2 1.9-4.3 3.5-6.8 4.5L82.7 281h-5.5z"/><path fill="#FFEC00" d="M40.6 281.1v-60.8h17.1c4.3 0 8 1.4 10.9 4.1 2.9 3 4.5 7.2 4.4 11.2.1 4.2-1.9 9-5 12.2-2.8 2.9-6.4 4.4-10.4 4.4h-3.4l20.6 28.9h-5.9l-23.5-33.6h12.2c7.1.1 10.9-6.9 11-11.9-.1-2.9-1.3-5.9-3.3-8-2.1-1.9-4.7-2.9-7.7-3H45.3V281h-4.7zM147.4 281.1c.8 3.3 2.4 6.2 4.8 8.7 3.4 3.3 7.8 5.1 12.5 5.1 4.6 0 9-1.8 12.2-5.1 3.4-3.3 5.3-7.7 5.4-12.5v-46.9h4.4v46.9c.1 6-2.2 11.5-6.5 15.7-4 4.1-9.6 6.5-15.4 6.5-6-.1-11.6-2.4-15.7-6.5-3.3-3.3-5.4-7.4-6.2-11.9h4.5z"/><path fill="#FFEC00" d="M149.3 281.1c.8 2.8 2.2 5.2 4.1 7.4 3.1 2.9 7.1 4.4 11.2 4.4 8.5 0 15.6-7 15.7-15.7v-13.7c-1.1 2-2.3 3.6-3.7 5.1-3.2 3.2-7.6 5-11.9 5.1-4.9-.1-9.2-1.9-12.5-5.4-3.3-3.1-5.1-7.5-5.1-12.2v-25.8h-4.7v25.8c0 5.9 2.3 11.4 6.5 15.7 4.2 4 9.7 6.4 15.7 6.2 3.8.1 7.6-1 11-3v2.1c0 6.1-5 11.1-11 11-3 .1-5.8-1-8-3.3-1-1-1.9-2.4-2.4-3.9h-4.9z"/><path fill="#FFEC00" d="M180.3 230.3v25.2c-.1 8.7-7.3 16.2-15.7 16.3-4.3-.1-8.2-1.7-11.2-4.7-2.8-2.9-4.4-6.7-4.4-10.9v-25.8h4.4v25.8c.1 2.9 1.3 5.7 3.3 7.7 2.2 2.1 5 3.3 8 3.3 5.8 0 11-5.4 11-11.6v-25.2h4.6zM262 213.7h4.6v67.4H262zM255.3 213.7h4.6v67.4h-4.6zM473.1 213.7h4.6v67.4h-4.6zM466.4 213.7h4.6v67.4h-4.6zM452.2 230.3h4.6v50.8h-4.6zM445.5 230.3h4.6v50.8h-4.6zM376.2 281.1L364 213.7h4.7l12.2 67.4zM361.8 213.7s-23.5 50.6-23.7 50.9c-.1-.3-23.7-50.9-23.7-50.9h5l18.7 40.1 18.4-40.1h5.3zM300 281.1l11.9-67.4h-4.7l-11.9 67.4z"/><path fill="#FFEC00" d="M302 281.1s11.4-64.6 11.5-65.1c.2.4 24.6 53.1 24.6 53.1s24.4-52.6 24.6-53.1c.1.5 11.5 65.1 11.5 65.1h-4.7l-8.9-49.9-22.6 49-22.6-49-8.9 49.9H302zM457.3 218.6c0 3.4-2.7 6.1-6.1 6.1-3.4 0-6.1-2.7-6.1-6.1 0-3.4 2.7-6.1 6.1-6.1 3.3 0 6.1 2.7 6.1 6.1m-6.1-2c-1.1 0-1.9.9-1.9 1.9 0 1.1.9 1.9 1.9 1.9 1.1 0 1.9-.9 1.9-1.9 0-1-.9-1.9-1.9-1.9"/><path fill-rule="evenodd" clip-rule="evenodd" fill="#FFEC00" d="M235.4 256.2c0 8.5-6.8 15.3-15.1 15.4-4.1-.2-7.9-1.7-10.7-4.5-3-3-4.6-6.8-4.5-11-.1-4 1.5-7.8 4.5-10.7 2.8-2.8 6.6-4.4 10.7-4.5h15.1v15.3zm-29.1 14.1c-3.9-3.9-5.9-8.8-5.9-14.2 0-5.3 2.1-10.2 5.9-13.9 3.6-3.7 8.5-5.8 13.9-5.9H240v19.8c-.1 11-9 19.9-19.8 19.8-5.3.1-10.2-1.9-13.9-5.6"/><path fill="#FFEC00" d="M242 281.1v-46.7h-21.8c-12 .2-21.8 9.9-21.8 21.8 0 5.8 2.2 11.3 6.3 15.5 4.2 4.1 9.7 6.3 15.5 6.3 5.8.1 11.2-2.2 15.2-6.3 1.9-1.9 3.4-4 4.6-6.6v16h-4.7v-3.6c-4.4 3.3-9.7 5-15.1 5.1-7.1 0-13.7-2.8-18.7-7.7-4.9-5-7.6-11.6-7.7-18.7.1-14.4 11.9-26.2 26.4-26.1h26.1v51.1H242z"/><path fill-rule="evenodd" clip-rule="evenodd" fill="#FFEC00" d="M425.1 256.2c0 8.5-6.8 15.3-15.1 15.4-4.1-.2-7.9-1.7-10.7-4.5-3-3-4.6-6.8-4.5-11-.1-4 1.5-7.8 4.5-10.7 2.8-2.8 6.6-4.4 10.7-4.5h15.1v15.3zm-29 14.1c-3.9-3.9-5.9-8.8-5.9-14.2 0-5.3 2.1-10.2 5.9-13.9 3.6-3.7 8.5-5.8 13.9-5.9h19.8v19.8c-.1 11-9 19.9-19.8 19.8-5.3.1-10.2-1.9-13.9-5.6"/><path fill="#FFEC00" d="M431.8 281.1v-46.7H410c-12 .2-21.8 9.9-21.8 21.8 0 5.8 2.2 11.3 6.3 15.5 4.2 4.1 9.7 6.3 15.5 6.3 5.8.1 11.2-2.2 15.2-6.3 1.9-1.9 3.4-4 4.6-6.6v16h-4.7v-3.6c-4.4 3.3-9.7 5-15.1 5.1-7.1 0-13.7-2.8-18.7-7.7-4.9-5-7.6-11.6-7.7-18.7.1-14.4 11.9-26.2 26.4-26.1h26.1v51.1h-4.3zM136.6 255.6c0 14.8-12 26.9-26.9 26.9-14.9 0-26.9-12-26.9-26.9 0-14.9 12-26.9 26.9-26.9 14.9 0 26.9 12.1 26.9 26.9m-26.9-22.4c-12.4 0-22.4 10-22.4 22.4 0 12.4 10 22.4 22.4 22.4 12.4 0 22.4-10 22.4-22.4.1-12.4-10-22.4-22.4-22.4"/><path fill="#FFEC00" d="M130.1 255.6c0 11.2-9.1 20.3-20.3 20.3-11.2 0-20.3-9.1-20.3-20.3 0-11.2 9.1-20.3 20.3-20.3 11.2 0 20.3 9.1 20.3 20.3m-20.4-15.9c-8.8 0-15.9 7.1-15.9 15.9s7.1 15.9 15.9 15.9 15.9-7.1 15.9-15.9-7.1-15.9-15.9-15.9"/></svg>