<svg data-v-fde0c5aa="" xmlns="http://www.w3.org/2000/svg" viewBox="0 0 300 300" class="font"><!----><defs data-v-fde0c5aa=""><!----></defs><rect data-v-fde0c5aa="" fill="transparent" x="0" y="0" width="300px" height="300px" class="logo-background-square"></rect><defs data-v-fde0c5aa=""><linearGradient data-v-fde0c5aa="" gradientTransform="rotate(25)" id="3889e996-eb4d-4b1b-9337-06210d7146fd" x1="0%" y1="0%" x2="100%" y2="0%"><stop data-v-fde0c5aa="" offset="0%" stop-color="#288B58" stop-opacity="1"></stop><stop data-v-fde0c5aa="" offset="100%" stop-color="#1522F1" stop-opacity="1"></stop></linearGradient></defs><g data-v-fde0c5aa="" id="336829c4-ea6c-4d47-b425-fe02f140246b" fill="url(#3889e996-eb4d-4b1b-9337-06210d7146fd)" transform="matrix(2.7093597077378035,0,0,2.7093597077378035,35.52955622384795,121.13177239156911)"><path d="M1.65 17.15L2.14 17.15L2.14 13.24L2.18 13.24C2.52 13.92 3.26 14.52 4.44 14.52C6.26 14.52 7.35 13.22 7.35 10.74C7.35 8.26 6.26 6.96 4.44 6.96C3.26 6.96 2.52 7.56 2.18 8.23L2.14 8.23L2.14 7.13L1.65 7.13ZM4.33 14.08C3.18 14.08 2.14 13.37 2.14 12.28L2.14 9.20C2.14 8.11 3.18 7.39 4.33 7.39C5.92 7.39 6.82 8.53 6.82 10.33L6.82 11.14C6.82 12.95 5.92 14.08 4.33 14.08ZM15.90 14.35L15.90 13.92L14.76 13.92L14.76 9.34C14.76 7.84 13.82 6.96 12.26 6.96C10.93 6.96 10.08 7.57 9.69 8.46L10.05 8.69C10.44 7.80 11.24 7.39 12.25 7.39C13.50 7.39 14.27 8.04 14.27 9.39L14.27 10.43L12.29 10.43C10.15 10.43 9.45 11.27 9.45 12.47C9.45 13.78 10.33 14.52 11.87 14.52C13.17 14.52 13.89 13.96 14.22 13.24L14.28 13.24L14.28 13.76C14.29 14.14 14.48 14.35 14.90 14.35ZM11.91 14.10C10.77 14.10 9.98 13.59 9.98 12.68L9.98 12.26C9.98 11.40 10.64 10.82 12.31 10.82L14.27 10.82L14.27 12.28C14.27 13.45 13.19 14.10 11.91 14.10ZM21.29 14.52C22.62 14.52 23.51 13.79 23.88 12.91L23.51 12.68C23.11 13.54 22.39 14.08 21.29 14.08C19.68 14.08 18.79 12.94 18.79 11.14L18.79 10.33C18.79 8.54 19.68 7.39 21.29 7.39C22.32 7.39 23.04 7.87 23.37 8.72L23.79 8.55C23.44 7.62 22.58 6.96 21.29 6.96C19.39 6.96 18.26 8.29 18.26 10.74C18.26 13.19 19.38 14.52 21.29 14.52ZM27.03 14.35L27.52 14.35L27.52 11.68L29.15 10.26L32.49 14.35L33.10 14.35L29.53 9.95L32.72 7.13L32.09 7.13L29.13 9.72L27.57 11.10L27.52 11.10L27.52 3.99L27.03 3.99ZM41.10 14.35L41.10 13.92L39.96 13.92L39.96 9.34C39.96 7.84 39.02 6.96 37.46 6.96C36.13 6.96 35.28 7.57 34.89 8.46L35.25 8.69C35.64 7.80 36.44 7.39 37.45 7.39C38.70 7.39 39.47 8.04 39.47 9.39L39.47 10.43L37.49 10.43C35.35 10.43 34.65 11.27 34.65 12.47C34.65 13.78 35.53 14.52 37.07 14.52C38.37 14.52 39.09 13.96 39.42 13.24L39.48 13.24L39.48 13.76C39.49 14.14 39.68 14.35 40.10 14.35ZM37.11 14.10C35.97 14.10 35.18 13.59 35.18 12.68L35.18 12.26C35.18 11.40 35.84 10.82 37.51 10.82L39.47 10.82L39.47 12.28C39.47 13.45 38.39 14.10 37.11 14.10ZM49.66 15.22C49.66 14.17 48.96 13.50 47.29 13.50L45.47 13.50C44.56 13.50 44.27 13.17 44.27 12.78C44.27 12.25 44.74 11.91 45.49 11.73C45.74 11.79 45.98 11.82 46.24 11.82C47.74 11.82 48.76 10.85 48.76 9.38C48.76 8.67 48.52 8.08 48.10 7.66L48.10 6.85L49.78 6.85L49.78 6.41L48.29 6.41C47.92 6.41 47.77 6.59 47.77 6.93L47.77 7.39C47.36 7.11 46.86 6.96 46.24 6.96C44.70 6.96 43.74 7.92 43.74 9.38C43.74 10.44 44.23 11.20 45.04 11.56L45.04 11.61C44.39 11.79 43.82 12.17 43.82 12.85C43.82 13.31 44.04 13.64 44.55 13.80L44.55 13.87C43.69 14.14 43.19 14.66 43.19 15.50C43.19 16.60 44.09 17.32 46.24 17.32C48.44 17.32 49.66 16.66 49.66 15.22ZM49.18 15.25C49.18 16.38 48.16 16.90 46.62 16.90L45.84 16.90C44.49 16.90 43.69 16.34 43.69 15.44C43.69 14.64 44.23 14.18 45.02 13.96L47.26 13.96C48.69 13.96 49.18 14.45 49.18 15.25ZM46.24 11.41C44.98 11.41 44.27 10.65 44.27 9.63L44.27 9.13C44.27 8.12 44.97 7.36 46.24 7.36C47.53 7.36 48.23 8.12 48.23 9.13L48.23 9.63C48.23 10.65 47.53 11.41 46.24 11.41ZM54.70 14.52C56.10 14.52 57.06 13.79 57.48 12.67L57.09 12.46C56.67 13.54 55.85 14.08 54.70 14.08C53.06 14.08 52.14 12.94 52.14 11.14L52.14 10.78L57.62 10.78L57.62 10.58C57.62 8.40 56.56 6.96 54.63 6.96C52.77 6.96 51.60 8.29 51.60 10.74C51.60 13.19 52.77 14.52 54.70 14.52ZM54.63 7.38C56.20 7.38 57.11 8.51 57.11 10.32L57.11 10.39L52.14 10.39L52.14 10.33C52.14 8.53 53.06 7.38 54.63 7.38ZM66.12 14.35L66.12 13.92L62.52 13.92L62.52 7.56L66.12 7.56L66.12 7.13L62.52 7.13L62.52 4.58L62.05 4.58L62.05 6.66C62.05 6.99 61.91 7.13 61.57 7.13L59.32 7.13L59.32 7.56L62.03 7.56L62.03 13.65C62.03 14.10 62.24 14.35 62.72 14.35ZM68.31 14.35L74.28 14.35L74.28 13.92L71.20 13.92L71.20 9.84C71.20 8.37 72.18 7.59 73.40 7.59L75.00 7.59L75.00 7.13L73.53 7.13C72.17 7.13 71.57 7.81 71.25 8.62L71.20 8.62L71.20 7.13L68.31 7.13L68.31 7.56L70.71 7.56L70.71 13.92L68.31 13.92ZM77.32 14.35L79.77 11.07L79.80 11.07L82.25 14.35L82.85 14.35L80.09 10.70L82.80 7.13L82.24 7.13L79.83 10.33L79.80 10.33L77.39 7.13L76.80 7.13L79.51 10.71L76.75 14.35Z"></path></g><!----><!----></svg>